<?xml version="1.0" standalone="no"?><svg xmlns="http://www.w3.org/2000/svg" viewBox="0 0 1440 320"><path fill="#0099ff" fill-opacity="1" d="M0,160L24,170.7C48,181,96,203,144,197.3C192,192,240,160,288,160C336,160,384,192,432,170.7C480,149,528,75,576,80C624,85,672,171,720,181.3C768,192,816,128,864,117.3C912,107,960,149,1008,160C1056,171,1104,149,1152,154.7C1200,160,1248,192,1296,186.7C1344,181,1392,139,1416,117.3L1440,96L1440,320L1416,320C1392,320,1344,320,1296,320C1248,320,1200,320,1152,320C1104,320,1056,320,1008,320C960,320,912,320,864,320C816,320,768,320,720,320C672,320,624,320,576,320C528,320,480,320,432,320C384,320,336,320,288,320C240,320,192,320,144,320C96,320,48,320,24,320L0,320Z"></path></svg>