<svg xmlns="http://www.w3.org/2000/svg" xmlns:xlink="http://www.w3.org/1999/xlink" viewBox="7113.419 4450.216 1098.44 8.925"><defs><style>.a{fill:none;}.b{clip-path:url(#a);}.c{fill:#174693;}</style><clipPath id="a"><rect class="a" width="1098.44" height="8.925"/></clipPath></defs><g class="b" transform="translate(7113.419 4450.216)"><g transform="translate(-128.419 -5271.216)"><path class="c" d="M43.313,108.989a13.724,13.724,0,0,1-7.74-2.734c-2.041-1.425-3.928-2.041-5.545-1.81a4.594,4.594,0,0,0-2.7,1.386,9.055,9.055,0,0,1-5.7,3.081c-2.927.424-6.007-.462-9.2-2.619-5.237-3.543-7.779-1-8.241-.462a2.493,2.493,0,0,1-3.273.5,2.013,2.013,0,0,1-.539-3,9,9,0,0,1,5.7-3.081c2.927-.424,6.007.462,9.2,2.619,5.237,3.543,7.779,1,8.241.462a9.386,9.386,0,0,1,5.815-3.081c2.927-.385,5.969.5,9.088,2.657,2.041,1.425,3.928,2.041,5.545,1.81a4.594,4.594,0,0,0,2.7-1.386l.039-.039c1.925-2.31,7.509-5.353,14.864-.424,5.16,3.466,7.817.924,8.318.385.039-.039.039-.039.039-.077a10.129,10.129,0,0,1,6.739-3.081,9.648,9.648,0,0,1,7.047,2.965,2.016,2.016,0,0,1-.077,3.042,2.527,2.527,0,0,1-3.35-.077,5.1,5.1,0,0,0-3.466-1.656,5.384,5.384,0,0,0-3.312,1.54c-2,2.311-7.548,5.237-14.787.347-5.083-3.427-7.779-1-8.279-.424a9.252,9.252,0,0,1-5.776,3.042,5.173,5.173,0,0,1-1.348.116" transform="translate(128.497 5171.126)"/></g><g transform="translate(-59.419 -5271.216)"><path class="c" d="M43.313,108.989a13.724,13.724,0,0,1-7.74-2.734c-2.041-1.425-3.928-2.041-5.545-1.81a4.594,4.594,0,0,0-2.7,1.386,9.055,9.055,0,0,1-5.7,3.081c-2.927.424-6.007-.462-9.2-2.619-5.237-3.543-7.779-1-8.241-.462a2.493,2.493,0,0,1-3.273.5,2.013,2.013,0,0,1-.539-3,9,9,0,0,1,5.7-3.081c2.927-.424,6.007.462,9.2,2.619,5.237,3.543,7.779,1,8.241.462a9.386,9.386,0,0,1,5.815-3.081c2.927-.385,5.969.5,9.088,2.657,2.041,1.425,3.928,2.041,5.545,1.81a4.594,4.594,0,0,0,2.7-1.386l.039-.039c1.925-2.31,7.509-5.353,14.864-.424,5.16,3.466,7.817.924,8.318.385.039-.039.039-.039.039-.077a10.129,10.129,0,0,1,6.739-3.081,9.648,9.648,0,0,1,7.047,2.965,2.016,2.016,0,0,1-.077,3.042,2.527,2.527,0,0,1-3.35-.077,5.1,5.1,0,0,0-3.466-1.656,5.384,5.384,0,0,0-3.312,1.54c-2,2.311-7.548,5.237-14.787.347-5.083-3.427-7.779-1-8.279-.424a9.252,9.252,0,0,1-5.776,3.042,5.173,5.173,0,0,1-1.348.116" transform="translate(128.497 5171.126)"/></g><g transform="translate(9.581 -5271.216)"><path class="c" d="M43.313,108.989a13.724,13.724,0,0,1-7.74-2.734c-2.041-1.425-3.928-2.041-5.545-1.81a4.594,4.594,0,0,0-2.7,1.386,9.055,9.055,0,0,1-5.7,3.081c-2.927.424-6.007-.462-9.2-2.619-5.237-3.543-7.779-1-8.241-.462a2.493,2.493,0,0,1-3.273.5,2.013,2.013,0,0,1-.539-3,9,9,0,0,1,5.7-3.081c2.927-.424,6.007.462,9.2,2.619,5.237,3.543,7.779,1,8.241.462a9.386,9.386,0,0,1,5.815-3.081c2.927-.385,5.969.5,9.088,2.657,2.041,1.425,3.928,2.041,5.545,1.81a4.594,4.594,0,0,0,2.7-1.386l.039-.039c1.925-2.31,7.509-5.353,14.864-.424,5.16,3.466,7.817.924,8.318.385.039-.039.039-.039.039-.077a10.129,10.129,0,0,1,6.739-3.081,9.648,9.648,0,0,1,7.047,2.965,2.016,2.016,0,0,1-.077,3.042,2.527,2.527,0,0,1-3.35-.077,5.1,5.1,0,0,0-3.466-1.656,5.384,5.384,0,0,0-3.312,1.54c-2,2.311-7.548,5.237-14.787.347-5.083-3.427-7.779-1-8.279-.424a9.252,9.252,0,0,1-5.776,3.042,5.173,5.173,0,0,1-1.348.116" transform="translate(128.497 5171.126)"/></g><g transform="translate(78.581 -5271.216)"><path class="c" d="M43.313,108.989a13.724,13.724,0,0,1-7.74-2.734c-2.041-1.425-3.928-2.041-5.545-1.81a4.594,4.594,0,0,0-2.7,1.386,9.055,9.055,0,0,1-5.7,3.081c-2.927.424-6.007-.462-9.2-2.619-5.237-3.543-7.779-1-8.241-.462a2.493,2.493,0,0,1-3.273.5,2.013,2.013,0,0,1-.539-3,9,9,0,0,1,5.7-3.081c2.927-.424,6.007.462,9.2,2.619,5.237,3.543,7.779,1,8.241.462a9.386,9.386,0,0,1,5.815-3.081c2.927-.385,5.969.5,9.088,2.657,2.041,1.425,3.928,2.041,5.545,1.81a4.594,4.594,0,0,0,2.7-1.386l.039-.039c1.925-2.31,7.509-5.353,14.864-.424,5.16,3.466,7.817.924,8.318.385.039-.039.039-.039.039-.077a10.129,10.129,0,0,1,6.739-3.081,9.648,9.648,0,0,1,7.047,2.965,2.016,2.016,0,0,1-.077,3.042,2.527,2.527,0,0,1-3.35-.077,5.1,5.1,0,0,0-3.466-1.656,5.384,5.384,0,0,0-3.312,1.54c-2,2.311-7.548,5.237-14.787.347-5.083-3.427-7.779-1-8.279-.424a9.252,9.252,0,0,1-5.776,3.042,5.173,5.173,0,0,1-1.348.116" transform="translate(128.497 5171.126)"/></g><g transform="translate(147.581 -5271.216)"><path class="c" d="M43.313,108.989a13.724,13.724,0,0,1-7.74-2.734c-2.041-1.425-3.928-2.041-5.545-1.81a4.594,4.594,0,0,0-2.7,1.386,9.055,9.055,0,0,1-5.7,3.081c-2.927.424-6.007-.462-9.2-2.619-5.237-3.543-7.779-1-8.241-.462a2.493,2.493,0,0,1-3.273.5,2.013,2.013,0,0,1-.539-3,9,9,0,0,1,5.7-3.081c2.927-.424,6.007.462,9.2,2.619,5.237,3.543,7.779,1,8.241.462a9.386,9.386,0,0,1,5.815-3.081c2.927-.385,5.969.5,9.088,2.657,2.041,1.425,3.928,2.041,5.545,1.81a4.594,4.594,0,0,0,2.7-1.386l.039-.039c1.925-2.31,7.509-5.353,14.864-.424,5.16,3.466,7.817.924,8.318.385.039-.039.039-.039.039-.077a10.129,10.129,0,0,1,6.739-3.081,9.648,9.648,0,0,1,7.047,2.965,2.016,2.016,0,0,1-.077,3.042,2.527,2.527,0,0,1-3.35-.077,5.1,5.1,0,0,0-3.466-1.656,5.384,5.384,0,0,0-3.312,1.54c-2,2.311-7.548,5.237-14.787.347-5.083-3.427-7.779-1-8.279-.424a9.252,9.252,0,0,1-5.776,3.042,5.173,5.173,0,0,1-1.348.116" transform="translate(128.497 5171.126)"/></g><g transform="translate(216.581 -5271.216)"><path class="c" d="M43.313,108.989a13.724,13.724,0,0,1-7.74-2.734c-2.041-1.425-3.928-2.041-5.545-1.81a4.594,4.594,0,0,0-2.7,1.386,9.055,9.055,0,0,1-5.7,3.081c-2.927.424-6.007-.462-9.2-2.619-5.237-3.543-7.779-1-8.241-.462a2.493,2.493,0,0,1-3.273.5,2.013,2.013,0,0,1-.539-3,9,9,0,0,1,5.7-3.081c2.927-.424,6.007.462,9.2,2.619,5.237,3.543,7.779,1,8.241.462a9.386,9.386,0,0,1,5.815-3.081c2.927-.385,5.969.5,9.088,2.657,2.041,1.425,3.928,2.041,5.545,1.81a4.594,4.594,0,0,0,2.7-1.386l.039-.039c1.925-2.31,7.509-5.353,14.864-.424,5.16,3.466,7.817.924,8.318.385.039-.039.039-.039.039-.077a10.129,10.129,0,0,1,6.739-3.081,9.648,9.648,0,0,1,7.047,2.965,2.016,2.016,0,0,1-.077,3.042,2.527,2.527,0,0,1-3.35-.077,5.1,5.1,0,0,0-3.466-1.656,5.384,5.384,0,0,0-3.312,1.54c-2,2.311-7.548,5.237-14.787.347-5.083-3.427-7.779-1-8.279-.424a9.252,9.252,0,0,1-5.776,3.042,5.173,5.173,0,0,1-1.348.116" transform="translate(128.497 5171.126)"/></g><g transform="translate(285.581 -5271.216)"><path class="c" d="M43.313,108.989a13.724,13.724,0,0,1-7.74-2.734c-2.041-1.425-3.928-2.041-5.545-1.81a4.594,4.594,0,0,0-2.7,1.386,9.055,9.055,0,0,1-5.7,3.081c-2.927.424-6.007-.462-9.2-2.619-5.237-3.543-7.779-1-8.241-.462a2.493,2.493,0,0,1-3.273.5,2.013,2.013,0,0,1-.539-3,9,9,0,0,1,5.7-3.081c2.927-.424,6.007.462,9.2,2.619,5.237,3.543,7.779,1,8.241.462a9.386,9.386,0,0,1,5.815-3.081c2.927-.385,5.969.5,9.088,2.657,2.041,1.425,3.928,2.041,5.545,1.81a4.594,4.594,0,0,0,2.7-1.386l.039-.039c1.925-2.31,7.509-5.353,14.864-.424,5.16,3.466,7.817.924,8.318.385.039-.039.039-.039.039-.077a10.129,10.129,0,0,1,6.739-3.081,9.648,9.648,0,0,1,7.047,2.965,2.016,2.016,0,0,1-.077,3.042,2.527,2.527,0,0,1-3.35-.077,5.1,5.1,0,0,0-3.466-1.656,5.384,5.384,0,0,0-3.312,1.54c-2,2.311-7.548,5.237-14.787.347-5.083-3.427-7.779-1-8.279-.424a9.252,9.252,0,0,1-5.776,3.042,5.173,5.173,0,0,1-1.348.116" transform="translate(128.497 5171.126)"/></g><g transform="translate(354.581 -5271.216)"><path class="c" d="M43.313,108.989a13.724,13.724,0,0,1-7.74-2.734c-2.041-1.425-3.928-2.041-5.545-1.81a4.594,4.594,0,0,0-2.7,1.386,9.055,9.055,0,0,1-5.7,3.081c-2.927.424-6.007-.462-9.2-2.619-5.237-3.543-7.779-1-8.241-.462a2.493,2.493,0,0,1-3.273.5,2.013,2.013,0,0,1-.539-3,9,9,0,0,1,5.7-3.081c2.927-.424,6.007.462,9.2,2.619,5.237,3.543,7.779,1,8.241.462a9.386,9.386,0,0,1,5.815-3.081c2.927-.385,5.969.5,9.088,2.657,2.041,1.425,3.928,2.041,5.545,1.81a4.594,4.594,0,0,0,2.7-1.386l.039-.039c1.925-2.31,7.509-5.353,14.864-.424,5.16,3.466,7.817.924,8.318.385.039-.039.039-.039.039-.077a10.129,10.129,0,0,1,6.739-3.081,9.648,9.648,0,0,1,7.047,2.965,2.016,2.016,0,0,1-.077,3.042,2.527,2.527,0,0,1-3.35-.077,5.1,5.1,0,0,0-3.466-1.656,5.384,5.384,0,0,0-3.312,1.54c-2,2.311-7.548,5.237-14.787.347-5.083-3.427-7.779-1-8.279-.424a9.252,9.252,0,0,1-5.776,3.042,5.173,5.173,0,0,1-1.348.116" transform="translate(128.497 5171.126)"/></g><g transform="translate(423.581 -5271.216)"><path class="c" d="M43.313,108.989a13.724,13.724,0,0,1-7.74-2.734c-2.041-1.425-3.928-2.041-5.545-1.81a4.594,4.594,0,0,0-2.7,1.386,9.055,9.055,0,0,1-5.7,3.081c-2.927.424-6.007-.462-9.2-2.619-5.237-3.543-7.779-1-8.241-.462a2.493,2.493,0,0,1-3.273.5,2.013,2.013,0,0,1-.539-3,9,9,0,0,1,5.7-3.081c2.927-.424,6.007.462,9.2,2.619,5.237,3.543,7.779,1,8.241.462a9.386,9.386,0,0,1,5.815-3.081c2.927-.385,5.969.5,9.088,2.657,2.041,1.425,3.928,2.041,5.545,1.81a4.594,4.594,0,0,0,2.7-1.386l.039-.039c1.925-2.31,7.509-5.353,14.864-.424,5.16,3.466,7.817.924,8.318.385.039-.039.039-.039.039-.077a10.129,10.129,0,0,1,6.739-3.081,9.648,9.648,0,0,1,7.047,2.965,2.016,2.016,0,0,1-.077,3.042,2.527,2.527,0,0,1-3.35-.077,5.1,5.1,0,0,0-3.466-1.656,5.384,5.384,0,0,0-3.312,1.54c-2,2.311-7.548,5.237-14.787.347-5.083-3.427-7.779-1-8.279-.424a9.252,9.252,0,0,1-5.776,3.042,5.173,5.173,0,0,1-1.348.116" transform="translate(128.497 5171.126)"/></g><g transform="translate(492.581 -5271.216)"><path class="c" d="M43.313,108.989a13.724,13.724,0,0,1-7.74-2.734c-2.041-1.425-3.928-2.041-5.545-1.81a4.594,4.594,0,0,0-2.7,1.386,9.055,9.055,0,0,1-5.7,3.081c-2.927.424-6.007-.462-9.2-2.619-5.237-3.543-7.779-1-8.241-.462a2.493,2.493,0,0,1-3.273.5,2.013,2.013,0,0,1-.539-3,9,9,0,0,1,5.7-3.081c2.927-.424,6.007.462,9.2,2.619,5.237,3.543,7.779,1,8.241.462a9.386,9.386,0,0,1,5.815-3.081c2.927-.385,5.969.5,9.088,2.657,2.041,1.425,3.928,2.041,5.545,1.81a4.594,4.594,0,0,0,2.7-1.386l.039-.039c1.925-2.31,7.509-5.353,14.864-.424,5.16,3.466,7.817.924,8.318.385.039-.039.039-.039.039-.077a10.129,10.129,0,0,1,6.739-3.081,9.648,9.648,0,0,1,7.047,2.965,2.016,2.016,0,0,1-.077,3.042,2.527,2.527,0,0,1-3.35-.077,5.1,5.1,0,0,0-3.466-1.656,5.384,5.384,0,0,0-3.312,1.54c-2,2.311-7.548,5.237-14.787.347-5.083-3.427-7.779-1-8.279-.424a9.252,9.252,0,0,1-5.776,3.042,5.173,5.173,0,0,1-1.348.116" transform="translate(128.497 5171.126)"/></g><g transform="translate(561.581 -5271.216)"><path class="c" d="M43.313,108.989a13.724,13.724,0,0,1-7.74-2.734c-2.041-1.425-3.928-2.041-5.545-1.81a4.594,4.594,0,0,0-2.7,1.386,9.055,9.055,0,0,1-5.7,3.081c-2.927.424-6.007-.462-9.2-2.619-5.237-3.543-7.779-1-8.241-.462a2.493,2.493,0,0,1-3.273.5,2.013,2.013,0,0,1-.539-3,9,9,0,0,1,5.7-3.081c2.927-.424,6.007.462,9.2,2.619,5.237,3.543,7.779,1,8.241.462a9.386,9.386,0,0,1,5.815-3.081c2.927-.385,5.969.5,9.088,2.657,2.041,1.425,3.928,2.041,5.545,1.81a4.594,4.594,0,0,0,2.7-1.386l.039-.039c1.925-2.31,7.509-5.353,14.864-.424,5.16,3.466,7.817.924,8.318.385.039-.039.039-.039.039-.077a10.129,10.129,0,0,1,6.739-3.081,9.648,9.648,0,0,1,7.047,2.965,2.016,2.016,0,0,1-.077,3.042,2.527,2.527,0,0,1-3.35-.077,5.1,5.1,0,0,0-3.466-1.656,5.384,5.384,0,0,0-3.312,1.54c-2,2.311-7.548,5.237-14.787.347-5.083-3.427-7.779-1-8.279-.424a9.252,9.252,0,0,1-5.776,3.042,5.173,5.173,0,0,1-1.348.116" transform="translate(128.497 5171.126)"/></g><g transform="translate(630.581 -5271.216)"><path class="c" d="M43.313,108.989a13.724,13.724,0,0,1-7.74-2.734c-2.041-1.425-3.928-2.041-5.545-1.81a4.594,4.594,0,0,0-2.7,1.386,9.055,9.055,0,0,1-5.7,3.081c-2.927.424-6.007-.462-9.2-2.619-5.237-3.543-7.779-1-8.241-.462a2.493,2.493,0,0,1-3.273.5,2.013,2.013,0,0,1-.539-3,9,9,0,0,1,5.7-3.081c2.927-.424,6.007.462,9.2,2.619,5.237,3.543,7.779,1,8.241.462a9.386,9.386,0,0,1,5.815-3.081c2.927-.385,5.969.5,9.088,2.657,2.041,1.425,3.928,2.041,5.545,1.81a4.594,4.594,0,0,0,2.7-1.386l.039-.039c1.925-2.31,7.509-5.353,14.864-.424,5.16,3.466,7.817.924,8.318.385.039-.039.039-.039.039-.077a10.129,10.129,0,0,1,6.739-3.081,9.648,9.648,0,0,1,7.047,2.965,2.016,2.016,0,0,1-.077,3.042,2.527,2.527,0,0,1-3.35-.077,5.1,5.1,0,0,0-3.466-1.656,5.384,5.384,0,0,0-3.312,1.54c-2,2.311-7.548,5.237-14.787.347-5.083-3.427-7.779-1-8.279-.424a9.252,9.252,0,0,1-5.776,3.042,5.173,5.173,0,0,1-1.348.116" transform="translate(128.497 5171.126)"/></g><g transform="translate(699.581 -5271.216)"><path class="c" d="M43.313,108.989a13.724,13.724,0,0,1-7.74-2.734c-2.041-1.425-3.928-2.041-5.545-1.81a4.594,4.594,0,0,0-2.7,1.386,9.055,9.055,0,0,1-5.7,3.081c-2.927.424-6.007-.462-9.2-2.619-5.237-3.543-7.779-1-8.241-.462a2.493,2.493,0,0,1-3.273.5,2.013,2.013,0,0,1-.539-3,9,9,0,0,1,5.7-3.081c2.927-.424,6.007.462,9.2,2.619,5.237,3.543,7.779,1,8.241.462a9.386,9.386,0,0,1,5.815-3.081c2.927-.385,5.969.5,9.088,2.657,2.041,1.425,3.928,2.041,5.545,1.81a4.594,4.594,0,0,0,2.7-1.386l.039-.039c1.925-2.31,7.509-5.353,14.864-.424,5.16,3.466,7.817.924,8.318.385.039-.039.039-.039.039-.077a10.129,10.129,0,0,1,6.739-3.081,9.648,9.648,0,0,1,7.047,2.965,2.016,2.016,0,0,1-.077,3.042,2.527,2.527,0,0,1-3.35-.077,5.1,5.1,0,0,0-3.466-1.656,5.384,5.384,0,0,0-3.312,1.54c-2,2.311-7.548,5.237-14.787.347-5.083-3.427-7.779-1-8.279-.424a9.252,9.252,0,0,1-5.776,3.042,5.173,5.173,0,0,1-1.348.116" transform="translate(128.497 5171.126)"/></g><g transform="translate(768.581 -5271.216)"><path class="c" d="M43.313,108.989a13.724,13.724,0,0,1-7.74-2.734c-2.041-1.425-3.928-2.041-5.545-1.81a4.594,4.594,0,0,0-2.7,1.386,9.055,9.055,0,0,1-5.7,3.081c-2.927.424-6.007-.462-9.2-2.619-5.237-3.543-7.779-1-8.241-.462a2.493,2.493,0,0,1-3.273.5,2.013,2.013,0,0,1-.539-3,9,9,0,0,1,5.7-3.081c2.927-.424,6.007.462,9.2,2.619,5.237,3.543,7.779,1,8.241.462a9.386,9.386,0,0,1,5.815-3.081c2.927-.385,5.969.5,9.088,2.657,2.041,1.425,3.928,2.041,5.545,1.81a4.594,4.594,0,0,0,2.7-1.386l.039-.039c1.925-2.31,7.509-5.353,14.864-.424,5.16,3.466,7.817.924,8.318.385.039-.039.039-.039.039-.077a10.129,10.129,0,0,1,6.739-3.081,9.648,9.648,0,0,1,7.047,2.965,2.016,2.016,0,0,1-.077,3.042,2.527,2.527,0,0,1-3.35-.077,5.1,5.1,0,0,0-3.466-1.656,5.384,5.384,0,0,0-3.312,1.54c-2,2.311-7.548,5.237-14.787.347-5.083-3.427-7.779-1-8.279-.424a9.252,9.252,0,0,1-5.776,3.042,5.173,5.173,0,0,1-1.348.116" transform="translate(128.497 5171.126)"/></g><g transform="translate(837.581 -5271.216)"><path class="c" d="M43.313,108.989a13.724,13.724,0,0,1-7.74-2.734c-2.041-1.425-3.928-2.041-5.545-1.81a4.594,4.594,0,0,0-2.7,1.386,9.055,9.055,0,0,1-5.7,3.081c-2.927.424-6.007-.462-9.2-2.619-5.237-3.543-7.779-1-8.241-.462a2.493,2.493,0,0,1-3.273.5,2.013,2.013,0,0,1-.539-3,9,9,0,0,1,5.7-3.081c2.927-.424,6.007.462,9.2,2.619,5.237,3.543,7.779,1,8.241.462a9.386,9.386,0,0,1,5.815-3.081c2.927-.385,5.969.5,9.088,2.657,2.041,1.425,3.928,2.041,5.545,1.81a4.594,4.594,0,0,0,2.7-1.386l.039-.039c1.925-2.31,7.509-5.353,14.864-.424,5.16,3.466,7.817.924,8.318.385.039-.039.039-.039.039-.077a10.129,10.129,0,0,1,6.739-3.081,9.648,9.648,0,0,1,7.047,2.965,2.016,2.016,0,0,1-.077,3.042,2.527,2.527,0,0,1-3.35-.077,5.1,5.1,0,0,0-3.466-1.656,5.384,5.384,0,0,0-3.312,1.54c-2,2.311-7.548,5.237-14.787.347-5.083-3.427-7.779-1-8.279-.424a9.252,9.252,0,0,1-5.776,3.042,5.173,5.173,0,0,1-1.348.116" transform="translate(128.497 5171.126)"/></g><g transform="translate(906.581 -5271.216)"><path class="c" d="M43.313,108.989a13.724,13.724,0,0,1-7.74-2.734c-2.041-1.425-3.928-2.041-5.545-1.81a4.594,4.594,0,0,0-2.7,1.386,9.055,9.055,0,0,1-5.7,3.081c-2.927.424-6.007-.462-9.2-2.619-5.237-3.543-7.779-1-8.241-.462a2.493,2.493,0,0,1-3.273.5,2.013,2.013,0,0,1-.539-3,9,9,0,0,1,5.7-3.081c2.927-.424,6.007.462,9.2,2.619,5.237,3.543,7.779,1,8.241.462a9.386,9.386,0,0,1,5.815-3.081c2.927-.385,5.969.5,9.088,2.657,2.041,1.425,3.928,2.041,5.545,1.81a4.594,4.594,0,0,0,2.7-1.386l.039-.039c1.925-2.31,7.509-5.353,14.864-.424,5.16,3.466,7.817.924,8.318.385.039-.039.039-.039.039-.077a10.129,10.129,0,0,1,6.739-3.081,9.648,9.648,0,0,1,7.047,2.965,2.016,2.016,0,0,1-.077,3.042,2.527,2.527,0,0,1-3.35-.077,5.1,5.1,0,0,0-3.466-1.656,5.384,5.384,0,0,0-3.312,1.54c-2,2.311-7.548,5.237-14.787.347-5.083-3.427-7.779-1-8.279-.424a9.252,9.252,0,0,1-5.776,3.042,5.173,5.173,0,0,1-1.348.116" transform="translate(128.497 5171.126)"/></g></g></svg>